Coordinates
version=1
nRows=21
nColumns=34
inDegrees=no

Units are S.I. units (second, meters, Newtons, ...)
If the header above contains a line with 'inDegrees', this indicates whether rotational values are in degrees (yes) or radians (no).

endheader
time	pelvis_tilt	pelvis_list	pelvis_rotation	pelvis_tx	pelvis_ty	pelvis_tz	hip_flexion_r	hip_adduction_r	hip_rotation_r	knee_angle_r	ankle_angle_r	subtalar_angle_r	mtp_angle_r	hip_flexion_l	hip_adduction_l	hip_rotation_l	knee_angle_l	ankle_angle_l	subtalar_angle_l	mtp_angle_l	lumbar_extension	lumbar_bending	lumbar_rotation	arm_flex_r	arm_add_r	arm_rot_r	elbow_flex_r	pro_sup_r	arm_flex_l	arm_add_l	arm_rot_l	elbow_flex_l	pro_sup_l
0	0.136613	-0.0159636	0.188413	-0.0615386	0.92127	-0.19428	0.255905	0.0474314	-0.151618	0.0675288	-0.197933	-0.0802956	0.0118023	-0.468099	-0.067064	-0.242636	0.128172	0.34775	0.138733	-0.0472729	-0.196391	0.0229874	-0.173544	-0.165561	-0.172811	-0.113574	0.247136	1.53905	0.471458	-0.258276	0.0269539	0.831936	1.88162
0.01	0.142995	-0.0393563	0.196161	-0.0476055	0.926504	-0.193632	0.247077	0.0725686	-0.160656	0.0792327	-0.220877	-0.117346	0.0118158	-0.467857	-0.10613	-0.254151	0.169774	0.343978	0.141207	-0.0471645	-0.199251	0.0505792	-0.174852	-0.167856	-0.175937	-0.115661	0.23913	1.54589	0.462218	-0.249709	0.0251617	0.83751	1.87663
0.02	0.147103	-0.0613489	0.203288	-0.0338792	0.931012	-0.192938	0.2414	0.0955284	-0.170446	0.0930026	-0.236585	-0.148063	0.0118293	-0.461153	-0.143161	-0.260344	0.2157	0.331566	0.137136	-0.047056	-0.199776	0.0759487	-0.175347	-0.16997	-0.178493	-0.118256	0.232286	1.55259	0.452728	-0.241635	0.0256477	0.841051	1.87392
0.03	0.14894	-0.0819444	0.209773	-0.0203654	0.934836	-0.192194	0.23883	0.116322	-0.180927	0.108741	-0.245141	-0.172521	0.0118428	-0.44798	-0.178133	-0.261257	0.265931	0.310526	0.126574	-0.0469476	-0.197974	0.099086	-0.175016	-0.17189	-0.180486	-0.121358	0.226618	1.55912	0.442991	-0.234056	0.028404	0.842557	1.87351
0.04	0.148517	-0.10115	0.215558	-0.00707083	0.938024	-0.191393	0.239222	0.134992	-0.191944	0.126162	-0.246815	-0.190942	0.0118563	-0.428349	-0.210983	-0.257061	0.320379	0.280965	0.109751	-0.0468391	-0.193883	0.119977	-0.173827	-0.173581	-0.181939	-0.124965	0.222159	1.56542	0.433016	-0.226975	0.0334021	0.842028	1.87548
0.05	0.145868	-0.118978	0.220547	0.00599685	0.940624	-0.190529	0.242289	0.151641	-0.203254	0.144761	-0.242149	-0.203727	0.0118698	-0.40236	-0.241631	-0.248121	0.378826	0.243229	0.0871984	-0.0467306	-0.187603	0.138625	-0.17172	-0.17499	-0.182897	-0.129073	0.21897	1.57138	0.422822	-0.220391	0.0405755	0.839473	1.87989
0.06	0.141105	-0.135449	0.224628	0.0188316	0.942694	-0.189592	0.247573	0.166443	-0.214578	0.163835	-0.231974	-0.211431	0.0118833	-0.370291	-0.269999	-0.235014	0.440851	0.198073	0.0598037	-0.046622	-0.179326	0.155083	-0.168621	-0.17604	-0.183437	-0.133656	0.217134	1.57684	0.412441	-0.214297	0.0498044	0.834926	1.8868
0.07	0.13446	-0.150616	0.2277	0.0314299	0.944299	-0.188579	0.254436	0.179649	-0.225656	0.182556	-0.217355	-0.214716	0.0118968	-0.332674	-0.296042	-0.218486	0.505806	0.146807	0.0287904	-0.0465135	-0.16937	0.169471	-0.164455	-0.176641	-0.183665	-0.138643	0.216733	1.58164	0.401914	-0.208678	0.0609063	0.828449	1.89618
0.08	0.126306	-0.164564	0.229714	0.0437903	0.945513	-0.187491	0.262096	0.191574	-0.23628	0.200083	-0.199491	-0.214275	0.0119103	-0.290324	-0.319766	-0.199373	0.572821	0.0913762	-0.00437703	-0.0464049	-0.15819	0.181983	-0.159171	-0.176691	-0.183713	-0.143879	0.217826	1.58562	0.391293	-0.203507	0.0736347	0.820139	1.90784
0.09	0.117136	-0.177388	0.230681	0.0559147	0.946419	-0.186341	0.269701	0.202543	-0.246315	0.215689	-0.179573	-0.210776	0.0119238	-0.24429	-0.3412	-0.178499	0.640867	0.0343159	-0.0381485	-0.0462962	-0.146346	0.19286	-0.152757	-0.176071	-0.183729	-0.149084	0.220417	1.58866	0.380628	-0.198749	0.0876853	0.810122	1.92147
0.1	0.1075	-0.189168	0.230676	0.0678066	0.947102	-0.185148	0.276444	0.212832	-0.255683	0.22887	-0.158663	-0.204812	0.0119373	-0.195751	-0.360367	-0.15659	0.70885	-0.0214212	-0.0710553	-0.0461876	-0.134447	0.202341	-0.145246	-0.174652	-0.183869	-0.15382	0.224426	1.59069	0.369963	-0.194365	0.102705	0.798551	1.93657
0.11	0.0979416	-0.19995	0.22982	0.0794707	0.947645	-0.183936	0.28165	0.222634	-0.264352	0.239398	-0.137604	-0.196881	0.0119509	-0.145891	-0.377258	-0.134234	0.775697	-0.0727701	-0.101855	-0.0460789	-0.123081	0.210633	-0.13672	-0.172288	-0.184283	-0.157493	0.229685	1.59169	0.35932	-0.190309	0.118303	0.785591	1.95253
0.12	0.0889367	-0.209735	0.228262	0.0909135	0.948125	-0.182733	0.284833	0.232041	-0.272306	0.247313	-0.11699	-0.187386	0.0119644	-0.0957918	-0.391836	-0.111875	0.840435	-0.116939	-0.129629	-0.0459701	-0.112755	0.21789	-0.127297	-0.16883	-0.185112	-0.159393	0.235946	1.59173	0.348692	-0.186537	0.134061	0.771408	1.96866
0.13	0.0808492	-0.218487	0.226155	0.102142	0.948607	-0.181566	0.285709	0.241063	-0.27952	0.252859	-0.0971749	-0.176656	0.0119779	-0.0463645	-0.404048	-0.0898528	0.902226	-0.151802	-0.153836	-0.0458614	-0.103851	0.224214	-0.11712	-0.164136	-0.186476	-0.158784	0.242919	1.59094	0.338033	-0.182994	0.149548	0.756153	1.98429
0.14	0.0739011	-0.226141	0.22363	0.113164	0.949143	-0.180457	0.28417	0.249651	-0.285941	0.256398	-0.078322	-0.164973	0.0119915	0.00167908	-0.41385	-0.0684513	0.960381	-0.1762	-0.174295	-0.0457526	-0.0966124	0.229653	-0.106335	-0.158087	-0.188467	-0.155019	0.250316	1.58949	0.327258	-0.179623	0.164335	0.739952	1.9988
0.15	0.0681854	-0.232636	0.220781	0.123993	0.949769	-0.17942	0.280237	0.257723	-0.291461	0.258309	-0.0604588	-0.152597	0.012005	0.0478176	-0.421221	-0.0479501	1.01434	-0.190088	-0.191142	-0.0456437	-0.0911501	0.234199	-0.0950749	-0.150602	-0.191136	-0.147672	0.257901	1.58757	0.316252	-0.176367	0.17801	0.722896	2.01169
0.16	0.0636927	-0.237912	0.217648	0.134642	0.950512	-0.178462	0.274017	0.265182	-0.295917	0.258917	-0.0435332	-0.139781	0.0120186	0.091696	-0.426172	-0.0286549	1.06366	-0.194467	-0.204733	-0.0455348	-0.0874495	0.237799	-0.083448	-0.14165	-0.194492	-0.136634	0.265525	1.58537	0.304876	-0.173171	0.190207	0.705041	2.02256
0.17	0.0603299	-0.241908	0.21422	0.145131	0.951387	-0.177584	0.265664	0.271932	-0.299098	0.258448	-0.0274566	-0.12678	0.0120322	0.133093	-0.42875	-0.0109033	1.108	-0.191133	-0.215546	-0.0454258	-0.0853967	0.240366	-0.0715315	-0.131258	-0.198489	-0.122178	0.273138	1.58303	0.292984	-0.169992	0.200619	0.686409	2.03113
0.18	0.0579407	-0.24457	0.210443	0.155478	0.952395	-0.176779	0.255354	0.277876	-0.300772	0.257029	-0.0121328	-0.113844	0.0120457	0.171894	-0.429035	0.00495363	1.14708	-0.182303	-0.224066	-0.0453167	-0.0848041	0.241794	-0.0593716	-0.119517	-0.203035	-0.104947	0.280787	1.58063	0.280444	-0.166798	0.209026	0.667	2.03719
0.19	0.0563308	-0.245856	0.20624	0.165702	0.953534	-0.17604	0.243281	0.282926	-0.300708	0.254693	0.00252423	-0.101203	0.0120593	0.208073	-0.427136	0.0185872	1.18074	-0.170211	-0.23071	-0.0452076	-0.0854355	0.241973	-0.0469883	-0.106572	-0.207997	-0.0858826	0.288583	1.57825	0.267153	-0.16357	0.215302	0.646807	2.04058
0.2	0.0552929	-0.245751	0.201528	0.175823	0.95479	-0.175357	0.229641	0.287002	-0.298718	0.251417	0.0165781	-0.0890607	0.012073	0.24167	-0.42318	0.029734	1.20888	-0.156776	-0.235771	-0.0450984	-0.0870307	0.240815	-0.0343835	-0.0926114	-0.213214	-0.0661047	0.296669	1.57596	0.253048	-0.160303	0.219415	0.625832	2.04117
